
      <svg data-logo="logo" xmlns="http://www.w3.org/2000/svg" viewBox="0 0 160 42">
        <g id="logogram" transform="translate(0, 1) rotate(0) "><path d="M13.0964 20.3536L17.6262 22.4473L17.046 27.6527L8.94876 36.8282C4.2486 33.8023 0.898178 28.8615 0 23.108L13.0964 20.3536Z" fill="#15E3FF"/><path d="M25.183 25.94L31.2414 36.3789C27.992 38.6605 24.0331 40 19.7612 40C18.3744 40 17.0206 39.8587 15.7133 39.59L17.046 27.6527L20.4765 23.7656L25.183 25.94Z" fill="#348DFC"/><path d="M39.1022 14.881C39.5332 16.5143 39.763 18.2294 39.763 19.9982C39.763 24.1145 38.5192 27.9403 36.3874 31.1207L25.184 25.9405L22.5551 21.4123L25.8574 17.6692L39.1022 14.881Z" fill="#FD4873"/><path d="M17.046 27.6524L17.0458 27.6527L17.1686 26.552L17.046 27.6524Z" fill="#FFC700"/><path d="M20.132 0C26.1505 0.109415 31.5194 2.877 35.1148 7.17842L25.8561 17.6694L20.9792 18.6959L18.519 14.4574L20.132 0Z" fill="#FFC700"/><path d="M18.519 14.4574L17.9745 19.3269L13.0991 20.353L0.514709 14.5347C2.09964 8.94044 6.05794 4.3436 11.2327 1.9007L18.519 14.4574Z" fill="#00E7B9"/></g>
        <g id="logotype" transform="translate(46, 8.5)"><path fill="#00c950" d="M23.54 25L11.32 25Q9.96 25 9.22 24.27Q8.48 23.53 8.48 22.16L8.48 22.16L8.48 3.16Q8.48 1.79 9.22 1.06Q9.96 0.32 11.32 0.32L11.32 0.32L23.54 0.32Q24.59 0.32 25.13 0.87Q25.67 1.41 25.67 2.42L25.67 2.42Q25.67 3.47 25.13 4.02Q24.59 4.56 23.54 4.56L23.54 4.56L13.67 4.56L13.67 10.33L22.73 10.33Q23.82 10.33 24.36 10.88Q24.90 11.42 24.90 12.47L24.90 12.47Q24.90 13.52 24.36 14.06Q23.82 14.60 22.73 14.60L22.73 14.60L13.67 14.60L13.67 20.77L23.54 20.77Q24.59 20.77 25.13 21.31Q25.67 21.85 25.67 22.86L25.67 22.86Q25.67 23.91 25.13 24.46Q24.59 25 23.54 25L23.54 25ZM43.17 25L31.13 25Q29.80 25 29.08 24.27Q28.37 23.53 28.37 22.23L28.37 22.23L28.37 3.02Q28.37 1.65 29.07 0.95Q29.77 0.25 31.10 0.25L31.10 0.25Q32.39 0.25 33.09 0.95Q33.79 1.65 33.79 3.02L33.79 3.02L33.79 20.41L43.17 20.41Q44.29 20.41 44.90 21.01Q45.52 21.61 45.52 22.69L45.52 22.69Q45.52 23.81 44.90 24.41Q44.29 25 43.17 25L43.17 25ZM55.42 25.39L55.42 25.39Q52.38 25.39 50.19 24.28Q48 23.18 46.83 21.17Q45.66 19.16 45.66 16.42L45.66 16.42Q45.66 13.76 46.78 11.75Q47.90 9.74 49.91 8.60Q51.92 7.46 54.48 7.46L54.48 7.46Q56.33 7.46 57.84 8.08Q59.34 8.69 60.43 9.83Q61.51 10.96 62.07 12.59Q62.63 14.22 62.63 16.21L62.63 16.21Q62.63 16.88 62.21 17.21Q61.79 17.54 60.99 17.54L60.99 17.54L50.00 17.54L50.00 14.81L58.82 14.81L58.26 15.30Q58.26 13.87 57.84 12.91Q57.42 11.94 56.63 11.45Q55.84 10.96 54.69 10.96L54.69 10.96Q53.39 10.96 52.48 11.56Q51.57 12.15 51.08 13.27Q50.59 14.39 50.59 15.97L50.59 15.97L50.59 16.25Q50.59 18.91 51.83 20.17Q53.08 21.43 55.53 21.43L55.53 21.43Q56.37 21.43 57.45 21.22Q58.54 21.01 59.48 20.55L59.48 20.55Q60.29 20.17 60.92 20.29Q61.55 20.41 61.90 20.87Q62.25 21.32 62.30 21.92Q62.35 22.52 62.04 23.09Q61.72 23.67 60.99 24.05L60.99 24.05Q59.80 24.72 58.31 25.05Q56.82 25.39 55.42 25.39ZM70.23 25.39L70.23 25.39Q68.34 25.39 66.83 24.65Q65.33 23.91 64.48 22.66Q63.65 21.39 63.65 19.82L63.65 19.82Q63.65 17.93 64.63 16.83Q65.61 15.72 67.81 15.25Q70.02 14.78 73.66 14.78L73.66 14.78L75.51 14.78L75.51 17.51L73.69 17.51Q71.91 17.51 70.80 17.70Q69.70 17.89 69.23 18.35Q68.76 18.80 68.76 19.61L68.76 19.61Q68.76 20.59 69.44 21.22Q70.12 21.85 71.42 21.85L71.42 21.85Q72.43 21.85 73.22 21.38Q74.01 20.91 74.46 20.08Q74.92 19.26 74.92 18.21L74.92 18.21L74.92 14.18Q74.92 12.64 74.22 12.00Q73.52 11.35 71.84 11.35L71.84 11.35Q70.89 11.35 69.79 11.58Q68.69 11.80 67.36 12.33L67.36 12.33Q66.59 12.68 65.99 12.49Q65.40 12.29 65.08 11.79Q64.77 11.28 64.77 10.67Q64.77 10.05 65.12 9.48Q65.47 8.90 66.27 8.62L66.27 8.62Q67.92 7.95 69.37 7.71Q70.82 7.46 72.05 7.46L72.05 7.46Q74.74 7.46 76.47 8.25Q78.21 9.04 79.08 10.67Q79.96 12.29 79.96 14.85L79.96 14.85L79.96 22.62Q79.96 23.91 79.33 24.61Q78.70 25.32 77.51 25.32L77.51 25.32Q76.32 25.32 75.67 24.61Q75.02 23.91 75.02 22.62L75.02 22.62L75.02 21.32L75.27 21.54Q75.06 22.73 74.37 23.58Q73.69 24.44 72.64 24.91Q71.59 25.39 70.23 25.39ZM85.35 25.32L85.35 25.32Q84.02 25.32 83.32 24.61Q82.62 23.91 82.62 22.62L82.62 22.62L82.62 10.19Q82.62 8.90 83.30 8.22Q83.98 7.53 85.21 7.53L85.21 7.53Q86.47 7.53 87.13 8.22Q87.80 8.90 87.80 10.19L87.80 10.19L87.80 12.01L87.45 12.01Q87.87 9.91 89.30 8.76Q90.74 7.60 93.01 7.46L93.01 7.46Q93.89 7.39 94.36 7.90Q94.83 8.41 94.87 9.56L94.87 9.56Q94.94 10.65 94.43 11.28Q93.92 11.91 92.73 12.05L92.73 12.05L91.93 12.12Q89.93 12.29 88.97 13.27Q88.01 14.25 88.01 16.11L88.01 16.11L88.01 22.62Q88.01 23.91 87.32 24.61Q86.64 25.32 85.35 25.32ZM98.40 25.32L98.40 25.32Q97.11 25.32 96.42 24.61Q95.74 23.91 95.74 22.62L95.74 22.62L95.74 10.19Q95.74 8.90 96.42 8.22Q97.11 7.53 98.33 7.53L98.33 7.53Q99.59 7.53 100.26 8.22Q100.92 8.90 100.92 10.19L100.92 10.19L100.92 12.19L100.54 11.03Q101.34 9.32 102.93 8.39Q104.53 7.46 106.56 7.46L106.56 7.46Q108.62 7.46 109.95 8.25Q111.28 9.04 111.95 10.63Q112.61 12.22 112.61 14.67L112.61 14.67L112.61 22.62Q112.61 23.91 111.93 24.61Q111.25 25.32 109.95 25.32L109.95 25.32Q108.69 25.32 108.01 24.61Q107.33 23.91 107.33 22.62L107.33 22.62L107.33 14.92Q107.33 13.13 106.68 12.35Q106.03 11.56 104.70 11.56L104.70 11.56Q103.02 11.56 102.02 12.61Q101.03 13.66 101.03 15.41L101.03 15.41L101.03 22.62Q101.03 25.32 98.40 25.32Z"/></g>
        
      </svg>
    