<?xml version="1.0" encoding="utf-8"?>
<!-- Uploaded to: SVG Repo, www.svgrepo.com, Generator: SVG Repo Mixer Tools -->
<svg width="800px" height="800px" viewBox="0 0 32.001 32.001" xmlns="http://www.w3.org/2000/svg">
  <g id="Lager_64" data-name="Lager 64" transform="translate(0)">
    <g id="Group_30" data-name="Group 30">
      <path id="Path_79" data-name="Path 79" d="M30.129,5,27,1.871A6.328,6.328,0,0,0,22.5.017c-.166,0-.332.006-.5.019V0H10V.036C9.834.023,9.668.017,9.5.017A6.328,6.328,0,0,0,5,1.871L1.871,5a6.387,6.387,0,0,0,0,9.034l.091.091a6.388,6.388,0,0,0,9.034,0l.331-.33A5.926,5.926,0,0,0,15.94,16h.12a5.926,5.926,0,0,0,4.613-2.2l.331.33a6.388,6.388,0,0,0,9.034,0l.091-.091A6.387,6.387,0,0,0,30.129,5Zm-2.828,6.2-.092.092a2.389,2.389,0,0,1-3.377,0l-.33-.331L20.674,8.143a.4.4,0,0,0-.587.03l-2.52,3.1A1.933,1.933,0,0,1,16.06,12h-.12a1.933,1.933,0,0,1-1.507-.722L11.961,8.231a.464.464,0,0,0-.688-.035L8.5,10.97l-.33.331a2.389,2.389,0,0,1-3.377,0L4.7,11.209a2.389,2.389,0,0,1,0-3.377L7.832,4.7A2.355,2.355,0,0,1,9.5,4.017c.064,0,.434-.022.5-.017H22c.064-.005.434.017.5.017a2.355,2.355,0,0,1,1.67.682L27.3,7.832A2.389,2.389,0,0,1,27.3,11.209Z" fill="#161615"/>
      <path id="Path_80" data-name="Path 80" d="M26.02,20h-.04A1.979,1.979,0,0,0,24,21.98V27a1,1,0,0,1-1,1H9a1,1,0,0,1-1-1V21.98A1.979,1.979,0,0,0,6.02,20H5.98A1.979,1.979,0,0,0,4,21.98v8.04A1.979,1.979,0,0,0,5.98,32H26.02A1.979,1.979,0,0,0,28,30.02V21.98A1.979,1.979,0,0,0,26.02,20Z" fill="#161615"/>
    </g>
  </g>
</svg>