<?xml version="1.0" encoding="utf-8"?>
<!-- Uploaded to: SVG Repo, www.svgrepo.com, Generator: SVG Repo Mixer Tools -->
<!DOCTYPE svg PUBLIC "-//W3C//DTD SVG 1.1//EN" "http://www.w3.org/Graphics/SVG/1.1/DTD/svg11.dtd">
<svg xmlns="http://www.w3.org/2000/svg" xmlns:xlink="http://www.w3.org/1999/xlink" version="1.1" id="Layer_1"  width="512" height="512" viewBox="0 0 512 512" enable-background="new 0 0 512 512" xml:space="preserve">
<g id="juice_2">
	<g>
		<path fill="#FB6D51" d="M383.997,56.34c0,5.523-4.484,10-10,10H138.002c-5.516,0-10-4.476-10-10V10.005c0-5.516,4.484-10,10-10    h235.995c5.516,0,10,4.484,10,10V56.34z"/>
	</g>
	<g>
		<path fill="#F5BA45" d="M383.997,42.676l42.672,95.998v363.321c0,5.531-4.484,10-10,10H180.673c-5.531,0-10-4.469-10-10V138.674    l-42.671-95.998H383.997z"/>
	</g>
	<path fill="#E8563F" d="M170.673,10.677c5.891,0,10.656-4.781,10.656-10.672h-21.327C160.002,5.896,164.783,10.677,170.673,10.677z   "/>
	<path fill="#E8563F" d="M213.329,10.677c5.89,0,10.671-4.781,10.671-10.672h-21.327C202.673,5.896,207.438,10.677,213.329,10.677z"/>
	<path fill="#E8563F" d="M256,10.677c5.891,0,10.672-4.781,10.672-10.672h-21.344C245.328,5.896,250.109,10.677,256,10.677z"/>
	<path fill="#E8563F" d="M298.671,10.677c5.891,0,10.656-4.781,10.656-10.672h-21.328C287.999,5.896,292.78,10.677,298.671,10.677z"/>
	<path fill="#E8563F" d="M341.327,10.677c5.89,0,10.671-4.781,10.671-10.672h-21.327C330.671,5.896,335.437,10.677,341.327,10.677z"/>
	<g>
		<path fill="#FECD57" d="M128.002,42.676l-42.671,95.998v363.321c0,5.531,4.484,10,10,10h235.996c5.531,0,10-4.469,10-10V138.674    l42.67-95.998H128.002z"/>
	</g>
	<polygon fill="#F5BA45" points="128.002,42.676 85.331,138.674 341.327,138.674 383.997,42.676  "/>
	<path fill="#424953" d="M245.328,202.673c0-5.891-4.766-10.664-10.656-10.664c-1.141,0-2.219,0.172-3.234,0.5   c-2.984,0.945-28.062,10.258-31.874,55.944l21.249,1.773c2.625-31.343,16.781-37.257,17.391-37.491   c-0.188,0.07-0.297,0.102-0.312,0.109C242.203,211.478,245.328,207.438,245.328,202.673z"/>
	<g>
		<path fill="#E5E8EC" d="M266.672,96.011c0,17.672-14.328,31.999-32,31.999c-17.671,0-31.999-14.327-31.999-31.999    c0-17.68,14.328-32.007,31.999-32.007C252.344,64.003,266.672,78.331,266.672,96.011z"/>
	</g>
	<path fill="#CBD0D8" d="M234.672,128.01c3.672,0,7.203-0.632,10.5-1.781c-0.844-5.039-5.219-8.891-10.5-8.891   c-5.297,0-9.672,3.852-10.516,8.891C227.453,127.377,230.984,128.01,234.672,128.01z"/>
	<path fill="#CBD0D8" d="M234.672,64.003c-3.688,0-7.219,0.633-10.516,1.781c0.844,5.039,5.219,8.891,10.516,8.891   c5.281,0,9.656-3.852,10.5-8.891C241.875,64.636,238.344,64.003,234.672,64.003z"/>
	<path fill="#CBD0D8" d="M262.375,112.011c1.844-3.195,3.062-6.57,3.719-9.992c-4.781-1.789-10.312,0.078-12.953,4.656   s-1.5,10.289,2.453,13.546C258.219,117.94,260.531,115.198,262.375,112.011z"/>
	<path fill="#CBD0D8" d="M206.954,80.003c-1.844,3.195-3.062,6.57-3.719,9.992c4.797,1.789,10.312-0.078,12.953-4.656   c2.64-4.578,1.499-10.289-2.438-13.546C211.11,74.074,208.798,76.815,206.954,80.003z"/>
	<path fill="#CBD0D8" d="M262.375,80.003c-1.844-3.188-4.141-5.929-6.781-8.21c-3.953,3.258-5.094,8.968-2.453,13.546   s8.172,6.445,12.953,4.656C265.438,86.573,264.219,83.198,262.375,80.003z"/>
	<path fill="#CBD0D8" d="M206.954,112.011c1.844,3.188,4.156,5.929,6.797,8.21c3.937-3.258,5.077-8.968,2.438-13.546   c-2.641-4.578-8.156-6.445-12.953-4.656C203.892,105.44,205.11,108.815,206.954,112.011z"/>
	<g>
		<path fill="#FB6D51" d="M298.671,319.998c0,47.125-38.202,85.343-85.342,85.343c-47.124,0-85.327-38.218-85.327-85.343    c0-47.123,38.203-85.326,85.327-85.326C260.469,234.672,298.671,272.875,298.671,319.998z"/>
	</g>
	<g opacity="0.2">
		<path fill="#FFFFFF" d="M213.329,234.672c-3.609,0-7.172,0.227-10.656,0.664c42.093,5.25,74.654,41.164,74.654,84.662    c0,43.531-32.562,79.421-74.654,84.671c3.484,0.438,7.047,0.672,10.656,0.672c47.14,0,85.342-38.218,85.342-85.343    C298.671,272.875,260.469,234.672,213.329,234.672z"/>
	</g>
	<path fill="#E8563F" d="M213.329,373.342c0,5.875-4.766,10.656-10.656,10.656s-10.672-4.781-10.672-10.656   c0-5.906,4.781-10.672,10.672-10.672S213.329,367.436,213.329,373.342z"/>
	<path fill="#E8563F" d="M224,341.342c0,5.875-4.781,10.656-10.671,10.656c-5.891,0-10.656-4.781-10.656-10.656   c0-5.906,4.766-10.672,10.656-10.672C219.219,330.67,224,335.436,224,341.342z"/>
	<path fill="#E8563F" d="M192.001,351.998c0,5.891-4.781,10.672-10.672,10.672s-10.656-4.781-10.656-10.672   s4.766-10.656,10.656-10.656S192.001,346.107,192.001,351.998z"/>
	<polygon opacity="0.1" points="383.997,42.676 341.327,138.674 426.669,138.674  "/>
</g>
</svg>